<svg fill="#FFFFFF" xmlns="http://www.w3.org/2000/svg"  viewBox="0 0 48 48" width="48px" height="48px"><path fill="none" stroke="#FFFFFF" stroke-miterlimit="10" stroke-width="3" d="M44.263,34.88 c-1.684-3.012-5.582-6.531-7.357-8.101c-0.498-0.441-0.516-1.197-0.064-1.684c3.377-3.638,5.611-7.743,6.548-10.274 c0.416-1.125-0.394-2.322-1.594-2.322l-3.478,0c-1.153,0-1.828,0.414-2.15,1.073c-2.826,5.791-5.541,8.113-7.237,9.578 c-0.95,0.82-2.431,0.141-2.431-1.108c0-2.408,0-5.397,0-7.602c0-1.068-0.865-1.928-1.932-1.93L18.477,12.5 c-0.799-0.001-1.256,0.91-0.778,1.549l1.174,1.571c0.397,0.525,0.612,1.163,0.612,1.819l0.025,6.737 c0,1.187-1.438,1.767-2.292,0.935c-2.888-2.813-5.58-8.559-6.484-11.308c-0.263-0.801-1.009-1.335-1.852-1.337l-3.447-0.009 c-1.294,0-2.239,1.226-1.887,2.46c3.145,11.038,9.32,21.409,20.803,22.575c1.163,0.118,2.166-0.828,2.166-1.997l0-4.047 c0-1.029,0.799-1.909,1.828-1.938c0.041-0.001,0.083-0.002,0.126-0.002c3.046,0,6.493,4.969,7.686,7.043 c0.344,0.597,0.985,0.961,1.678,0.961l4.875,0C44.061,37.513,44.923,36.06,44.263,34.88z"/></svg>